<svg width="44" height="23" viewBox="0 0 44 23" fill="none" xmlns="http://www.w3.org/2000/svg">
<path d="M4.18 11.8945C4.18 8.13253 7.238 5.07453 11 5.07453H19.8V0.894531H11C4.928 0.894531 0 5.82253 0 11.8945C0 17.9665 4.928 22.8945 11 22.8945H19.8V18.7145H11C7.238 18.7145 4.18 15.6565 4.18 11.8945ZM13.2 14.0945H30.8V9.69453H13.2V14.0945ZM33 0.894531H24.2V5.07453H33C36.762 5.07453 39.82 8.13253 39.82 11.8945C39.82 15.6565 36.762 18.7145 33 18.7145H24.2V22.8945H33C39.072 22.8945 44 17.9665 44 11.8945C44 5.82253 39.072 0.894531 33 0.894531Z" fill="#222221"/>
</svg>
