<svg width="55" height="49" viewBox="0 0 55 49" fill="none" xmlns="http://www.w3.org/2000/svg">
<path d="M3.06853 45.9159L3.00015 35.2771C2.95227 24.3048 14.7696 19.6218 20.0969 28.5725L20.2269 28.7904L30.143 15.8577C35.614 8.73113 45.3796 10.7051 48.5733 19.5741L51.8969 28.7904" stroke="white" stroke-width="6" stroke-linecap="round" stroke-linejoin="round"/>
<path d="M11.6306 16.5861C15.3999 16.5861 18.4556 13.5447 18.4556 9.79305C18.4556 6.04135 15.3999 3 11.6306 3C7.86121 3 4.80554 6.04135 4.80554 9.79305C4.80554 13.5447 7.86121 16.5861 11.6306 16.5861Z" stroke="white" stroke-width="6" stroke-linecap="round" stroke-linejoin="round"/>
<path d="M43.7911 38.4241C43.8167 34.6725 40.7819 31.6105 37.0126 31.585C33.2434 31.5594 30.167 34.58 30.1413 38.3316C30.1156 42.0832 33.1505 45.1452 36.9197 45.1708C40.689 45.1963 43.7654 42.1757 43.7911 38.4241Z" stroke="white" stroke-width="6" stroke-linecap="round" stroke-linejoin="round"/>
</svg>
