<svg width="60" height="61" viewBox="0 0 60 61" fill="none" xmlns="http://www.w3.org/2000/svg">
<g clip-path="url(#clip0_1_53)">
<path d="M52.6532 52.9318C53.071 53.2483 53.4162 53.6503 53.6659 54.111C53.9156 54.5718 54.064 55.0805 54.1011 55.6033C54.1382 56.126 54.0632 56.6506 53.881 57.142C53.6989 57.6334 53.4138 58.0802 53.045 58.4524C52.6761 58.8247 52.232 59.1139 51.7423 59.3005C51.2526 59.4872 50.7287 59.567 50.2057 59.5348C49.6826 59.5025 49.1725 59.3588 48.7095 59.1134C48.2465 58.8679 47.8413 58.5264 47.521 58.1116L31.4969 40.5763C30.2275 40.5357 28.9769 40.2585 27.8093 39.759L33.6353 33.9234L37.437 37.7251L52.6532 52.9318ZM19.0084 33.6858L26.184 26.5006L18.9133 19.2204L3.94422 4.2323C3.71815 3.99262 3.43795 3.81059 3.12708 3.70146C2.81621 3.59232 2.48371 3.55925 2.15744 3.60502C1.67272 3.66204 0.950402 4.12775 0.845856 5.31577C0.33263 10.1914 3.90621 18.6217 16.6228 31.3668C17.4592 32.2031 18.267 32.973 19.0084 33.6858ZM32.3143 13.727L33.2647 12.7766L32.3143 13.727ZM59.1826 12.1018C58.3748 11.2939 57.2818 11.0943 56.6925 11.6646L45.2875 23.0696C44.9344 23.3347 44.4922 23.4522 44.0541 23.3972C43.6161 23.3422 43.2165 23.1191 42.9399 22.775C42.7687 22.6276 42.6284 22.4478 42.5271 22.246C42.4257 22.0441 42.3654 21.8242 42.3495 21.5988C42.3336 21.3735 42.3624 21.1473 42.4344 20.9332C42.5064 20.7191 42.6201 20.5214 42.7689 20.3514L54.1739 8.94638C54.7347 8.38563 54.5351 7.26413 53.7272 6.45628C52.9194 5.64842 51.8264 5.44883 51.2371 6.01908L39.8321 17.4241C39.4775 17.6898 39.0337 17.8075 38.5941 17.7526C38.1545 17.6976 37.7533 17.4743 37.475 17.1295C37.1324 16.8515 36.9111 16.4514 36.8579 16.0134C36.8047 15.5754 36.9237 15.1338 37.1899 14.782L48.5949 3.37692C49.1557 2.80667 48.9561 1.68517 48.1577 0.877314C47.3594 0.0694568 46.1619 -0.111123 45.6201 0.459129L33.2647 12.7481C29.2539 16.7683 30.537 19.5626 32.8275 22.0907L1.23553 53.7207C0.492728 54.4122 0.0522781 55.3685 0.00958391 56.3825C-0.0331103 57.3965 0.325389 58.3865 1.00743 59.138C1.3765 59.4807 1.80997 59.7467 2.28268 59.9204C2.75539 60.0941 3.25792 60.1722 3.76106 60.1501C4.2642 60.128 4.75794 60.0062 5.21359 59.7916C5.66924 59.5771 6.07772 59.2742 6.41532 58.9004L38.0168 27.2705C40.5544 29.561 43.3486 30.844 47.3784 26.8238L59.6768 14.5444C60.2471 13.9836 60.0475 12.8621 59.2396 12.0543L59.1826 12.1018Z" fill="white"/>
</g>
<defs>
<clipPath id="clip0_1_53">
<rect width="60" height="60" fill="white" transform="translate(0 0.135986)"/>
</clipPath>
</defs>
</svg>
