<svg width="41" height="51" viewBox="0 0 41 51" fill="none" xmlns="http://www.w3.org/2000/svg">
<path d="M40.4975 30.537C40.6963 33.5215 40.1138 36.5063 38.8075 39.197C37.4369 42.0715 35.4157 44.5873 32.9041 46.5452C30.3925 48.5031 27.4596 49.8493 24.3375 50.477C23.0204 50.7394 21.6805 50.87 20.3375 50.867C16.991 50.7784 13.7115 49.9096 10.7601 48.3297C7.80874 46.7498 5.26705 44.5026 3.3375 41.767C1.47717 39.1702 0.348209 36.1216 0.0685201 32.9395C-0.211169 29.7574 0.368678 26.5585 1.7475 23.677C5.5975 14.857 12.4775 7.00702 19.2275 0.197021C25.4818 5.63041 31.0466 11.8098 35.7975 18.597C38.4175 22.467 40.2175 26.407 40.4975 30.537Z" fill="white"/>
</svg>
