<svg width="63" height="96" viewBox="0 0 63 96" fill="none" xmlns="http://www.w3.org/2000/svg">
<g clip-path="url(#clip0_1_45)">
<path d="M62.4692 57.7529H0.530806C0.381517 56.388 0.21564 54.9408 0 53.4444H63.0332C62.7844 54.9408 62.6185 56.388 62.4692 57.7529Z" fill="white"/>
<path d="M58.0569 84.5903C57.2121 86.0314 56.0839 87.2896 54.7394 88.2903C53.7275 89.0468 45.7655 92.0232 45.7655 92.2041V95.197H17.1351V92.2863C0.547435 88.685 2.2062 77.4863 0.779663 60.7622H62.1541C62.1541 61.1733 62.1541 61.568 62.1541 61.9627C61.6896 68.1787 61.8721 74.7236 59.8816 80.7752C59.4127 82.1079 58.801 83.387 58.0569 84.5903Z" fill="white"/>
<path d="M16.936 24.8638C12.59 35.043 14.2156 43.627 18.2464 48.5439C17.5166 38.447 17.5995 34.1549 21.6635 25.686C25.7275 17.2171 17.981 11.7082 12.7891 9.29083C15.2401 10.9698 17.005 13.4619 17.7655 16.3176C18.5259 19.1732 18.2317 22.2043 16.936 24.8638Z" fill="white"/>
<path d="M40.2417 24.2389C35.8957 34.4181 37.5213 42.9528 41.4692 47.8861C40.7227 37.7892 40.8057 33.4972 44.7867 25.0283C48.7678 16.5593 41.1872 10.9682 35.9952 8.58374C38.4833 10.2512 40.282 12.7515 41.0618 15.6267C41.8417 18.5018 41.5506 21.5593 40.2417 24.2389Z" fill="white"/>
<path d="M28.6304 15.77C24.2844 25.9492 25.91 34.5332 29.8744 39.4501C29.128 29.3532 29.2109 25.0612 33.192 16.5922C37.173 8.1233 29.5925 2.53216 24.4005 0.147705C26.8777 1.81641 28.6676 4.31196 29.444 7.17955C30.2204 10.0471 29.9317 13.0958 28.6304 15.77Z" fill="white"/>
</g>
<defs>
<clipPath id="clip0_1_45">
<rect width="63" height="95" fill="white" transform="translate(0 0.197021)"/>
</clipPath>
</defs>
</svg>
